<svg xmlns="http://www.w3.org/2000/svg" width="589.889" height="342.495" viewBox="0 0 589.889 342.495">
  <defs>
    <style>
      .cls-1 {
        fill: #ebebeb;
      }

      .cls-2 {
        fill: #e0e0e0;
      }

      .cls-3 {
        fill: #f0f0f0;
      }

      .cls-4 {
        fill: #fafafa;
      }

      .cls-5 {
        fill: #e6e6e6;
      }

      .cls-6 {
        fill: #f5f5f5;
      }

      .cls-7 {
        fill: #ff008e;
      }

      .cls-8 {
        opacity: 0.4;
      }

      .cls-10, .cls-11, .cls-15, .cls-16, .cls-17, .cls-19, .cls-9 {
        fill: #fff;
      }

      .cls-10, .cls-18 {
        opacity: 0.2;
      }

      .cls-11 {
        opacity: 0.8;
      }

      .cls-12 {
        fill: #263238;
      }

      .cls-13 {
        fill: #2e353a;
      }

      .cls-14 {
        fill: #e4897b;
      }

      .cls-15 {
        opacity: 0.1;
      }

      .cls-16 {
        opacity: 0.6;
      }

      .cls-17 {
        opacity: 0.3;
      }

      .cls-18 {
        isolation: isolate;
      }

      .cls-19 {
        opacity: 0.5;
      }

      .cls-20 {
        fill: #de5753;
      }

      .cls-21, .cls-22, .cls-23, .cls-24, .cls-25 {
        fill: #004eff;
      }

      .cls-21 {
        opacity: 0.362;
      }

      .cls-22 {
        opacity: 0.584;
      }

      .cls-24 {
        opacity: 0.215;
      }

      .cls-25 {
        opacity: 0.23;
      }
    </style>
  </defs>
  <g id="Deadline-rafiki_1_" data-name="Deadline-rafiki (1)" transform="translate(0 -85.065)">
    <g id="freepik--background-complete--inject-10">
      <rect id="Rectangle_167" data-name="Rectangle 167" class="cls-1" width="500" height="0.25" transform="translate(0 382.4)"/>
      <rect id="Rectangle_168" data-name="Rectangle 168" class="cls-1" width="33.12" height="0.25" transform="translate(416.78 398.49)"/>
      <rect id="Rectangle_169" data-name="Rectangle 169" class="cls-1" width="8.69" height="0.25" transform="translate(322.53 401.21)"/>
      <rect id="Rectangle_170" data-name="Rectangle 170" class="cls-1" width="19.19" height="0.25" transform="translate(396.59 389.21)"/>
      <rect id="Rectangle_171" data-name="Rectangle 171" class="cls-1" width="43.19" height="0.25" transform="translate(52.46 390.89)"/>
      <rect id="Rectangle_172" data-name="Rectangle 172" class="cls-1" width="6.33" height="0.25" transform="translate(104.56 390.89)"/>
      <rect id="Rectangle_173" data-name="Rectangle 173" class="cls-1" width="93.68" height="0.25" transform="translate(131.47 395.11)"/>
      <rect id="Rectangle_174" data-name="Rectangle 174" class="cls-1" width="8.31" height="8.31" transform="matrix(0.978, -0.21, 0.21, 0.978, 164.46, 134.628)"/>
      <circle id="Ellipse_19" data-name="Ellipse 19" class="cls-2" cx="45.81" cy="45.81" r="45.81" transform="translate(131.076 226.949) rotate(-86.94)"/>
      <circle id="Ellipse_20" data-name="Ellipse 20" class="cls-3" cx="39.88" cy="39.88" r="39.88" transform="translate(123.183 177.673) rotate(-38.9)"/>
      <rect id="Rectangle_175" data-name="Rectangle 175" class="cls-2" width="14.97" height="9.37" transform="matrix(0.978, -0.21, 0.21, 0.978, 159.688, 128.321)"/>
      <path id="Path_777" data-name="Path 777" class="cls-2" d="M183.06,182.83a3.88,3.88,0,1,1-1.682-2.458,3.88,3.88,0,0,1,1.682,2.458Z"/>
      <path id="Path_778" data-name="Path 778" class="cls-2" d="M169.67,151.45c1.21,2.56,2.25,5.17,3.3,7.78l1.5,3.93,1.42,4c1,2.64,1.83,5.3,2.68,8s1.68,5.34,2.45,8l-3-.82q2.72-2.49,5.49-4.92c1.85-1.62,3.73-3.21,5.62-4.77s3.82-3.11,5.76-4.63,3.93-3,6-4.38c-1.55,2-3.18,3.8-4.82,5.64s-3.32,3.64-5,5.4-3.43,3.53-5.18,5.25-3.52,3.43-5.32,5.1l-2.14,2-.87-2.82c-.82-2.68-1.59-5.37-2.34-8.07s-1.47-5.4-2.13-8.13l-1-4.09-.89-4.11C170.61,157,170.05,154.25,169.67,151.45Z"/>
      <path id="Path_779" data-name="Path 779" class="cls-3" d="M423.43,163.24l-36,104.57L242,217.77l36-104.58,4.89,1.68a3.17,3.17,0,1,0,5.06,3.43,3,3,0,0,0,.11-1.65l4.88,1.68a3,3,0,0,0-.93,1.37,3.172,3.172,0,0,0,6,2.06,3,3,0,0,0,.1-1.65l4.88,1.67a3,3,0,0,0-.93,1.37,3.172,3.172,0,0,0,6,2.06,3.12,3.12,0,0,0,.11-1.65l4.87,1.67a3.17,3.17,0,1,0,5.06,3.43,3.11,3.11,0,0,0,.11-1.65l4.87,1.68a3.1,3.1,0,0,0-.93,1.37,3.17,3.17,0,1,0,6.1.41l4.87,1.67a3.1,3.1,0,0,0-.93,1.37,3.172,3.172,0,1,0,6,2.06,3.12,3.12,0,0,0,.11-1.65l4.87,1.68a3,3,0,0,0-.93,1.37,3.172,3.172,0,1,0,6,2.06,3.13,3.13,0,0,0,.11-1.65l4.87,1.67a3.17,3.17,0,1,0,5.06,3.43,3,3,0,0,0,.11-1.65l4.87,1.68a3.17,3.17,0,1,0,5.07,3.42,3,3,0,0,0,.1-1.65l4.88,1.68a3,3,0,0,0-.93,1.37,3.17,3.17,0,1,0,6.1.41l4.87,1.67a3.1,3.1,0,0,0-.93,1.37,3.172,3.172,0,1,0,6,2.06,3.12,3.12,0,0,0,.11-1.65l4.87,1.68a3,3,0,0,0-.93,1.37,3.172,3.172,0,1,0,6,2.06,3.13,3.13,0,0,0,.11-1.65l4.87,1.67a3.1,3.1,0,0,0-.93,1.37,3.172,3.172,0,1,0,6,2.06,3.12,3.12,0,0,0,.11-1.65l4.87,1.68a3.07,3.07,0,0,0-.93,1.36,3.172,3.172,0,0,0,6,2.06,3.11,3.11,0,0,0,.11-1.65Z"/>
      <path id="Path_780" data-name="Path 780" class="cls-2" d="M423.43,163.24l-7.33,21.31-145.49-50,7.33-21.32,4.89,1.68a3.17,3.17,0,1,0,5.06,3.43,3,3,0,0,0,.11-1.65l4.88,1.68a3,3,0,0,0-.93,1.37,3.172,3.172,0,0,0,6,2.06,3,3,0,0,0,.1-1.65l4.88,1.67a3,3,0,0,0-.93,1.37,3.172,3.172,0,1,0,6,2.06,3.12,3.12,0,0,0,.11-1.65l4.87,1.67a3.17,3.17,0,1,0,5.06,3.43,3.11,3.11,0,0,0,.11-1.65l4.87,1.68a3.1,3.1,0,0,0-.93,1.37,3.17,3.17,0,1,0,6.1.41l4.87,1.67a3.1,3.1,0,0,0-.93,1.37,3.172,3.172,0,1,0,6,2.06,3.12,3.12,0,0,0,.11-1.65l4.87,1.68a3,3,0,0,0-.93,1.37,3.172,3.172,0,0,0,6,2.06,3.13,3.13,0,0,0,.11-1.65l4.87,1.67a3.17,3.17,0,1,0,5.06,3.43,3,3,0,0,0,.11-1.65l4.87,1.68a3.17,3.17,0,1,0,5.07,3.42,3,3,0,0,0,.1-1.65l4.88,1.68a3,3,0,0,0-.93,1.37,3.17,3.17,0,1,0,6.1.41l4.87,1.67a3.1,3.1,0,0,0-.93,1.37,3.172,3.172,0,1,0,6,2.06,3.12,3.12,0,0,0,.11-1.65l4.87,1.68a3,3,0,0,0-.93,1.37,3.172,3.172,0,0,0,6,2.06,3.13,3.13,0,0,0,.11-1.65l4.87,1.67a3.1,3.1,0,0,0-.93,1.37,3.172,3.172,0,0,0,6,2.06,3.121,3.121,0,0,0,.11-1.65l4.87,1.68a3.07,3.07,0,0,0-.93,1.36,3.172,3.172,0,0,0,6,2.06,3.11,3.11,0,0,0,.11-1.65Z"/>
      <rect id="Rectangle_176" data-name="Rectangle 176" class="cls-4" width="16.85" height="16.85" transform="matrix(0.946, 0.325, -0.325, 0.946, 314.843, 154.585)"/>
      <rect id="Rectangle_177" data-name="Rectangle 177" class="cls-4" width="16.85" height="16.85" transform="matrix(0.946, 0.325, -0.325, 0.946, 333.893, 161.147)"/>
      <rect id="Rectangle_178" data-name="Rectangle 178" class="cls-4" width="16.85" height="16.85" transform="matrix(0.946, 0.325, -0.325, 0.946, 352.947, 167.697)"/>
      <rect id="Rectangle_179" data-name="Rectangle 179" class="cls-4" width="16.85" height="16.85" transform="matrix(0.946, 0.325, -0.325, 0.946, 372.007, 174.259)"/>
      <rect id="Rectangle_180" data-name="Rectangle 180" class="cls-4" width="16.85" height="16.85" transform="matrix(0.946, 0.325, -0.325, 0.946, 391.061, 180.809)"/>
      <rect id="Rectangle_181" data-name="Rectangle 181" class="cls-4" width="16.85" height="16.85" transform="matrix(0.946, 0.325, -0.325, 0.946, 270.532, 159.516)"/>
      <rect id="Rectangle_182" data-name="Rectangle 182" class="cls-4" width="16.85" height="16.85" transform="matrix(0.946, 0.325, -0.325, 0.946, 289.573, 166.065)"/>
      <rect id="Rectangle_183" data-name="Rectangle 183" class="cls-4" width="16.85" height="16.85" transform="matrix(0.946, 0.325, -0.325, 0.946, 308.636, 172.618)"/>
      <rect id="Rectangle_184" data-name="Rectangle 184" class="cls-4" width="16.85" height="16.85" transform="matrix(0.946, 0.325, -0.325, 0.946, 327.687, 179.177)"/>
      <rect id="Rectangle_185" data-name="Rectangle 185" class="cls-4" width="16.85" height="16.85" transform="matrix(0.946, 0.325, -0.325, 0.946, 346.75, 185.73)"/>
      <rect id="Rectangle_186" data-name="Rectangle 186" class="cls-4" width="16.85" height="16.85" transform="matrix(0.946, 0.325, -0.325, 0.946, 365.81, 192.293)"/>
      <rect id="Rectangle_187" data-name="Rectangle 187" class="cls-4" width="16.85" height="16.85" transform="matrix(0.946, 0.325, -0.325, 0.946, 384.864, 198.832)"/>
      <rect id="Rectangle_188" data-name="Rectangle 188" class="cls-4" width="16.85" height="16.85" transform="matrix(0.946, 0.325, -0.325, 0.946, 264.325, 177.539)"/>
      <rect id="Rectangle_189" data-name="Rectangle 189" class="cls-4" width="16.85" height="16.85" transform="matrix(0.946, 0.325, -0.325, 0.946, 283.376, 184.098)"/>
      <rect id="Rectangle_190" data-name="Rectangle 190" class="cls-4" width="16.85" height="16.85" transform="matrix(0.946, 0.325, -0.325, 0.946, 302.439, 190.651)"/>
      <rect id="Rectangle_191" data-name="Rectangle 191" class="cls-4" width="16.85" height="16.85" transform="matrix(0.946, 0.325, -0.325, 0.946, 321.49, 197.211)"/>
      <rect id="Rectangle_192" data-name="Rectangle 192" class="cls-4" width="16.85" height="16.85" transform="matrix(0.946, 0.325, -0.325, 0.946, 340.553, 203.764)"/>
      <rect id="Rectangle_193" data-name="Rectangle 193" class="cls-4" width="16.85" height="16.85" transform="matrix(0.946, 0.325, -0.325, 0.946, 359.603, 210.316)"/>
      <rect id="Rectangle_194" data-name="Rectangle 194" class="cls-4" width="16.85" height="16.85" transform="matrix(0.946, 0.325, -0.325, 0.946, 378.657, 216.866)"/>
      <rect id="Rectangle_195" data-name="Rectangle 195" class="cls-4" width="16.85" height="16.85" transform="matrix(0.946, 0.325, -0.325, 0.946, 258.119, 195.569)"/>
      <rect id="Rectangle_196" data-name="Rectangle 196" class="cls-4" width="16.85" height="16.85" transform="matrix(0.946, 0.325, -0.325, 0.946, 277.179, 202.132)"/>
      <rect id="Rectangle_197" data-name="Rectangle 197" class="cls-4" width="16.85" height="16.85" transform="matrix(0.946, 0.325, -0.325, 0.946, 296.242, 208.685)"/>
      <rect id="Rectangle_198" data-name="Rectangle 198" class="cls-4" width="16.85" height="16.85" transform="matrix(0.946, 0.325, -0.325, 0.946, 315.286, 215.224)"/>
      <rect id="Rectangle_199" data-name="Rectangle 199" class="cls-4" width="16.85" height="16.85" transform="matrix(0.946, 0.325, -0.325, 0.946, 334.346, 221.787)"/>
      <rect id="Rectangle_200" data-name="Rectangle 200" class="cls-4" width="16.85" height="16.85" transform="matrix(0.946, 0.325, -0.325, 0.946, 353.4, 228.336)"/>
      <path id="Path_781" data-name="Path 781" class="cls-2" d="M338.14,202.1a1.51,1.51,0,0,1-1.35-.84l-10.45-21.42a1.5,1.5,0,1,1,2.69-1.31L339.49,200a1.5,1.5,0,0,1-.69,2A1.41,1.41,0,0,1,338.14,202.1Z"/>
      <path id="Path_782" data-name="Path 782" class="cls-2" d="M322.2,196.62a1.5,1.5,0,0,1-.66-2.85L343,183.32a1.5,1.5,0,1,1,1.32,2.7L322.9,196.47A1.55,1.55,0,0,1,322.2,196.62Z"/>
      <path id="Path_785" data-name="Path 785" class="cls-5" d="M111,360.73l1.74,1.44,3.09-3.09-1.45-1.74a11.5,11.5,0,0,0,1.68-4l2.25-.21v-4.37l-2.25-.21a11.34,11.34,0,0,0-1.68-4l1.45-1.75-3.09-3.09L111,341.1a11.471,11.471,0,0,0-4-1.68l-.21-2.25h-4.36l-.22,2.25a11.5,11.5,0,0,0-4,1.68l-1.74-1.45-3.09,3.09,1.44,1.75a11.51,11.51,0,0,0-1.67,4l-2.25.21v4.37l2.25.21a11.67,11.67,0,0,0,1.67,4l-1.44,1.74,3.09,3.09,1.74-1.44a11.67,11.67,0,0,0,4,1.67l.22,2.25h4.36l.21-2.25a11.64,11.64,0,0,0,4-1.61Zm-12.34-9.82a2.451,2.451,0,1,1-.03,0Z"/>
    </g>
    <g id="freepik--Shadow--inject-10">
      <ellipse id="freepik--path--inject-10" class="cls-6" cx="193.89" cy="11.32" rx="193.89" ry="11.32" transform="translate(56.11 404.92)"/>
    </g>
    <g id="freepik--background-complete--inject-41" transform="translate(74.11 119.269)">
      <rect id="Rectangle_23" data-name="Rectangle 23" class="cls-1" width="52.543" height="66.326" transform="translate(501.214 296.296) rotate(-179.55)"/>
      <path id="Path_114" data-name="Path 114" class="cls-4" d="M670.341,361.21l-.933,64.214-8.3-.06,1.776-64.214Z" transform="translate(-189.164 -129.272)"/>
      <path id="Path_115" data-name="Path 115" class="cls-2" d="M590.023,360.58l30.141.239,52.543.41-52.595,6.918-.448,56.886L589.53,424.8Z" transform="translate(-171 -129.127)"/>
      <path id="Path_116" data-name="Path 116" class="cls-4" d="M608.731,360.727l-1.2,64.214-8.94-.067,1.463-64.214Z" transform="translate(-173.299 -129.147)"/>
      <path id="Path_117" data-name="Path 117" class="cls-2" d="M636.3,328.133c0,.134-.888.3-2.507.455a65.5,65.5,0,0,1-6.888.306,38.572,38.572,0,0,1-10.283-1.351,7.371,7.371,0,0,1-1.492-.672,4.034,4.034,0,0,1-1.373-1.3,3.626,3.626,0,0,1-.552-1.918,7.19,7.19,0,0,1,.224-1.761,39.069,39.069,0,0,1,1.948-6.313,16.092,16.092,0,0,1,1.7-3.03,9.493,9.493,0,0,1,2.5-2.47,5.09,5.09,0,0,1,1.731-.746,4.477,4.477,0,0,1,1.91,0,7.566,7.566,0,0,1,2.9,1.582,30.146,30.146,0,0,1,6.836,7.843,25.141,25.141,0,0,1,2.769,6.4c.41,1.6.455,2.507.343,2.537-.328.1-1.067-3.492-4.268-8.209a31.674,31.674,0,0,0-6.8-7.142,6.081,6.081,0,0,0-2.239-1.186,2.836,2.836,0,0,0-2.2.478,7.811,7.811,0,0,0-1.955,2,14.918,14.918,0,0,0-1.492,2.672,41.044,41.044,0,0,0-1.873,5.97,2.985,2.985,0,0,0,.052,2.239,3.574,3.574,0,0,0,1.888,1.269,24.405,24.405,0,0,0,2.589.687c.858.194,1.709.343,2.537.47,1.649.261,3.2.41,4.634.507,2.858.194,5.224.231,6.813.313A6.3,6.3,0,0,1,636.3,328.133Z" transform="translate(-177.007 -116.097)"/>
      <path id="Path_118" data-name="Path 118" class="cls-4" d="M642.69,327.728a8.409,8.409,0,0,1,2.724-.821c1.769-.4,4.351-.933,7.462-1.686a71.175,71.175,0,0,0,10.731-3.388A12.009,12.009,0,0,0,666.3,320.4a2.986,2.986,0,0,0,.866-.955,1.665,1.665,0,0,0,.149-1.089,6.017,6.017,0,0,0-.515-1.418c-.246-.53-.5-1.067-.746-1.6a25.891,25.891,0,0,0-1.716-3.089,13.374,13.374,0,0,0-2.239-2.6,8.546,8.546,0,0,0-2.672-1.724,4.269,4.269,0,0,0-2.769-.119,7.224,7.224,0,0,0-2.485,1.492,37.667,37.667,0,0,0-7.186,8.47,32.66,32.66,0,0,0-3.194,6.821c-.56,1.709-.784,2.686-.933,2.664s-.142-1.037.2-2.851a26.17,26.17,0,0,1,2.731-7.328,35.915,35.915,0,0,1,7.2-9.119,8.723,8.723,0,0,1,3.1-1.933,6.1,6.1,0,0,1,3.977.1,8.406,8.406,0,0,1,1.776.888,13.912,13.912,0,0,1,1.545,1.186,14.809,14.809,0,0,1,2.53,2.985,28.228,28.228,0,0,1,1.843,3.321l.746,1.649a7.362,7.362,0,0,1,.642,1.91,3.5,3.5,0,0,1-.366,2.283,4.791,4.791,0,0,1-1.4,1.545,13.431,13.431,0,0,1-3.134,1.612,61.614,61.614,0,0,1-11.126,3.074c-3.216.6-5.836.9-7.641,1.09S642.712,327.855,642.69,327.728Z" transform="translate(-184.49 -115.207)"/>
      <rect id="Rectangle_24" data-name="Rectangle 24" class="cls-2" width="77.236" height="21.954" transform="translate(486.691 231.965) rotate(-179.55)"/>
      <rect id="Rectangle_25" data-name="Rectangle 25" class="cls-1" width="69.81" height="21.954" transform="translate(507.677 232.123) rotate(-179.55)"/>
      <path id="Path_119" data-name="Path 119" class="cls-4" d="M677.567,331.847l-.485,22.051-8.141-.172.567-21.947Z" transform="translate(-191.151 -121.819)"/>
      <path id="Path_120" data-name="Path 120" class="cls-4" d="M599.678,331.349l-.791,21.857-8.947-.075.477-21.962Z" transform="translate(-171.104 -121.664)"/>
      <rect id="Rectangle_26" data-name="Rectangle 26" class="cls-1" width="23.999" height="30.297" transform="translate(512.749 296.849) rotate(-179.55)"/>
      <path id="Path_121" data-name="Path 121" class="cls-4" d="M702.084,408.83l-.426,29.327-3.8-.022.813-29.335Z" transform="translate(-198.49 -141.364)"/>
      <path id="Path_122" data-name="Path 122" class="cls-2" d="M665.394,408.54l13.768.1,24,.194L679.14,412l-.209,25.984-13.761-.1Z" transform="translate(-190.195 -141.298)"/>
      <path id="Path_123" data-name="Path 123" class="cls-4" d="M673.934,408.61l-.545,29.335-4.089-.037.672-29.327Z" transform="translate(-191.243 -141.308)"/>
      <path id="Path_124" data-name="Path 124" class="cls-2" d="M686.357,393.553c0,.246-1.6.619-4.306.746a16.748,16.748,0,0,1-4.843-.53,2.828,2.828,0,0,1-1.582-1.089,2.15,2.15,0,0,1-.336-1.142,4.23,4.23,0,0,1,.1-.933,17.821,17.821,0,0,1,.91-2.985,7.827,7.827,0,0,1,.836-1.492,4.731,4.731,0,0,1,1.291-1.276,2.642,2.642,0,0,1,2.052-.366,3.91,3.91,0,0,1,1.492.836,13.484,13.484,0,0,1,3.142,3.731c1.351,2.47,1.336,4.254,1.1,4.283s-.746-1.492-2.239-3.537a14.869,14.869,0,0,0-3.09-3.075,2.193,2.193,0,0,0-.828-.44.791.791,0,0,0-.612.164,3.156,3.156,0,0,0-.746.784,6.261,6.261,0,0,0-.619,1.127,18.057,18.057,0,0,0-.836,2.634c-.112.418-.09.6-.052.649a1.141,1.141,0,0,0,.589.381,15.588,15.588,0,0,0,2.239.56c.746.134,1.433.224,2.075.291C684.685,393.143,686.349,393.262,686.357,393.553Z" transform="translate(-192.763 -135.176)"/>
      <path id="Path_125" data-name="Path 125" class="cls-4" d="M689.423,393.417c-.045-.284,1.754-.746,4.582-1.492a37,37,0,0,0,4.8-1.634,5.275,5.275,0,0,0,1.112-.6.894.894,0,0,0,.246-.276v-.172a8.3,8.3,0,0,0-.537-1.239,12.952,12.952,0,0,0-.746-1.351,5.975,5.975,0,0,0-.918-1.09,3.539,3.539,0,0,0-1.045-.687,1.426,1.426,0,0,0-.94-.06,2.747,2.747,0,0,0-.963.567,17.957,17.957,0,0,0-3.283,3.694c-1.575,2.373-1.9,4.194-2.239,4.149-.119,0-.2-.5-.1-1.358a10.68,10.68,0,0,1,1.127-3.478,15.883,15.883,0,0,1,3.291-4.35,4.358,4.358,0,0,1,1.582-.992,3.238,3.238,0,0,1,2.142.037,3.957,3.957,0,0,1,.925.455,6.489,6.489,0,0,1,.746.582,7.463,7.463,0,0,1,1.246,1.492,13.3,13.3,0,0,1,.873,1.575c.119.261.231.515.351.746A3.99,3.99,0,0,1,702,388.94a2.163,2.163,0,0,1-.224,1.366,2.731,2.731,0,0,1-.791.866,6.186,6.186,0,0,1-1.552.746,26.2,26.2,0,0,1-5.186,1.321C691.326,393.648,689.468,393.626,689.423,393.417Z" transform="translate(-196.329 -134.786)"/>
      <rect id="Rectangle_27" data-name="Rectangle 27" class="cls-2" width="35.275" height="10.029" transform="translate(506.118 267.461) rotate(-179.55)"/>
      <rect id="Rectangle_28" data-name="Rectangle 28" class="cls-1" width="31.887" height="10.029" transform="translate(515.7 267.539) rotate(-179.55)"/>
      <path id="Path_126" data-name="Path 126" class="cls-4" d="M705.38,395.42l-.224,10.067-3.716-.075.261-10.022Z" transform="translate(-199.399 -137.961)"/>
      <path id="Path_127" data-name="Path 127" class="cls-4" d="M669.8,395.182l-.358,9.985-4.089-.03.224-10.037Z" transform="translate(-190.241 -137.887)"/>
      <rect id="Rectangle_29" data-name="Rectangle 29" class="cls-1" width="43.043" height="54.334" transform="translate(75.162 296.895) rotate(-179.55)"/>
      <path id="Path_128" data-name="Path 128" class="cls-4" d="M104.817,377.585l-.761,52.61-6.806-.052,1.463-52.6Z" transform="translate(-46.078 -133.431)"/>
      <path id="Path_129" data-name="Path 129" class="cls-2" d="M39.023,377.07l24.693.194,43.043.336-43.088,5.671-.366,46.6L38.62,429.68Z" transform="translate(-31.2 -133.312)"/>
      <path id="Path_130" data-name="Path 130" class="cls-4" d="M54.346,377.192l-.978,52.6-7.328-.052,1.194-52.6Z" transform="translate(-33.082 -133.329)"/>
      <path id="Path_131" data-name="Path 131" class="cls-2" d="M76.551,350.123c0,.269-.746.545-2.037.813a36.767,36.767,0,0,1-9.7.522c-.746-.067-1.492-.149-2.239-.284a19.248,19.248,0,0,1-2.463-.537A7.017,7.017,0,0,1,58.657,350a4.418,4.418,0,0,1-1.492-1.4,4.127,4.127,0,0,1-.634-2.142,6.985,6.985,0,0,1,.2-1.716,31.82,31.82,0,0,1,1.634-5.373,14.522,14.522,0,0,1,1.492-2.686,12.9,12.9,0,0,1,1.022-1.209,6.827,6.827,0,0,1,1.351-1.1,5.38,5.38,0,0,1,1.8-.746,4.68,4.68,0,0,1,2.037.045,7.127,7.127,0,0,1,2.783,1.537A24.111,24.111,0,0,1,74.492,342a17.79,17.79,0,0,1,2.007,5.537c.216,1.373.1,2.164-.142,2.239-.575.142-1.492-2.679-4.179-6.268a27.252,27.252,0,0,0-5.537-5.448,3.769,3.769,0,0,0-1.41-.746,1.239,1.239,0,0,0-.955.269,4.076,4.076,0,0,0-.634.552c-.209.231-.44.522-.649.806a11.366,11.366,0,0,0-1.09,1.978,34.456,34.456,0,0,0-1.492,4.694,3.335,3.335,0,0,0-.142.791c0,.172,0,.187,0,.224a1.88,1.88,0,0,0,.963.612,19.543,19.543,0,0,0,1.978.582c.679.172,1.351.306,2,.433,1.306.239,2.552.41,3.731.545,2.3.261,4.209.418,5.53.619S76.544,349.855,76.551,350.123Z" transform="translate(-35.744 -122.267)"/>
      <path id="Path_132" data-name="Path 132" class="cls-4" d="M82.126,349.768c-.1-.552,3.127-1.448,8.209-2.843a65.509,65.509,0,0,0,8.559-2.985,8.6,8.6,0,0,0,1.94-1.067,1.276,1.276,0,0,0,.4-.433v-.187a4.433,4.433,0,0,0-.343-.866l-.619-1.291a22.172,22.172,0,0,0-1.336-2.4,10.051,10.051,0,0,0-1.612-1.918,7.643,7.643,0,0,0-.925-.746,4.056,4.056,0,0,0-.881-.47,2.381,2.381,0,0,0-1.56-.112,4.747,4.747,0,0,0-1.664.985,32.484,32.484,0,0,0-5.888,6.544c-2.843,4.209-3.485,7.462-4.074,7.373-.254,0-.433-.9-.269-2.455a19.022,19.022,0,0,1,1.97-6.291,28.357,28.357,0,0,1,5.9-7.865,8.15,8.15,0,0,1,2.9-1.828,6.1,6.1,0,0,1,3.977.067,7.782,7.782,0,0,1,1.694.836,11.392,11.392,0,0,1,1.4,1.067,13.173,13.173,0,0,1,2.239,2.649,24.4,24.4,0,0,1,1.582,2.858l.627,1.373a7.223,7.223,0,0,1,.6,1.858,3.993,3.993,0,0,1-.433,2.575,4.97,4.97,0,0,1-1.492,1.619,11.717,11.717,0,0,1-2.836,1.425,45.789,45.789,0,0,1-9.335,2.328,47.9,47.9,0,0,1-6.365.545C83.021,350.163,82.163,350.036,82.126,349.768Z" transform="translate(-42.207 -121.524)"/>
      <rect id="Rectangle_30" data-name="Rectangle 30" class="cls-2" width="63.266" height="17.984" transform="translate(63.264 244.195) rotate(-179.55)"/>
      <rect id="Rectangle_31" data-name="Rectangle 31" class="cls-1" width="57.192" height="17.984" transform="translate(80.444 244.326) rotate(-179.55)"/>
      <path id="Path_133" data-name="Path 133" class="cls-4" d="M110.737,353.532l-.4,18.066-6.671-.142.463-17.977Z" transform="translate(-47.707 -127.325)"/>
      <path id="Path_134" data-name="Path 134" class="cls-4" d="M46.927,353.122l-.642,17.91-7.336-.06.4-17.992Z" transform="translate(-31.283 -127.199)"/>
    </g>
    <g id="freepik--Label--inject-41" transform="translate(291.2 161.661)">
      <path id="Path_175" data-name="Path 175" class="cls-7" d="M551.02,299.959l-49.752-55.893a21.074,21.074,0,0,0-15.581-7.059L321.9,235.82a21.059,21.059,0,0,0-21.216,21.111l.276,115.98A21.059,21.059,0,0,0,322.1,393.925l163.224-.687a21.051,21.051,0,0,0,15.88-7.291l50.05-58.206a21.074,21.074,0,0,0-.239-27.783Zm-27.685,20.148a31.71,31.71,0,1,1,0-.03Z" transform="translate(-300.68 -138.764)"/>
      <g id="Group_9" data-name="Group 9" class="cls-8" transform="translate(0 97.055)">
        <path id="Path_176" data-name="Path 176" d="M551.02,299.959l-49.752-55.893a21.074,21.074,0,0,0-15.581-7.059L321.9,235.82a21.059,21.059,0,0,0-21.216,21.111l.276,115.98A21.059,21.059,0,0,0,322.1,393.925l163.224-.687a21.051,21.051,0,0,0,15.88-7.291l50.05-58.206a21.074,21.074,0,0,0-.239-27.783Zm-27.685,20.148a31.71,31.71,0,1,1,0-.03Z" transform="translate(-300.68 -235.819)"/>
      </g>
      <path id="Path_177" data-name="Path 177" class="cls-7" d="M562.563,299.959l-49.774-55.893a21.089,21.089,0,0,0-15.581-7.059L333.415,235.82A21.051,21.051,0,0,0,312.2,256.931l.269,115.98a21.066,21.066,0,0,0,21.223,21.014l163.217-.687a21.067,21.067,0,0,0,15.88-7.291l50.043-58.206A21.066,21.066,0,0,0,562.563,299.959Zm-27.678,20.148a31.556,31.556,0,1,1,0-.03Z" transform="translate(-303.603 -138.764)"/>
      <path id="Path_178" data-name="Path 178" class="cls-9" d="M385.239,308.807c.127-14.059,8.791-22.917,20.939-22.8s20.529,9.007,20.4,23.178-8.686,22.917-20.827,22.8S385.105,322.866,385.239,308.807Zm29.424.276c.082-8.955-3.328-13.261-8.574-13.305-5.119-.052-8.738,4.321-8.821,13.141s3.455,13.253,8.574,13.305C411.089,322.269,414.582,318.016,414.664,309.083Zm41.185-21.641,14.178.134-57.721,82.832-14.178-.134ZM441.58,348.686c.134-14.059,8.791-22.917,20.827-22.8,12.149.119,20.641,9.134,20.514,23.186s-8.791,22.88-20.947,22.753C449.983,371.722,441.453,362.708,441.58,348.686Zm29.3.269c.082-8.813-3.328-13.253-8.574-13.3-5.119-.052-8.731,4.2-8.813,13.141s3.448,13.253,8.567,13.305c5.246.015,8.738-4.365,8.813-13.186Z" transform="translate(-322.138 -151.5)"/>
      <path id="Path_185" data-name="Path 185" class="cls-9" d="M544.99,268.6l4.851-2.791,2.575-4.97,2.8,4.851,4.97,2.582-4.851,2.791-2.582,4.97-2.791-4.851Z" transform="translate(-362.677 -145.114)"/>
      <path id="Path_186" data-name="Path 186" class="cls-9" d="M509.85,260l1.7-.978.9-1.739.978,1.694,1.739.9-1.7.978-.9,1.739-.978-1.694Z" transform="translate(-353.76 -144.21)"/>
      <path id="Path_187" data-name="Path 187" class="cls-9" d="M532.29,305.064l3.283-1.888,1.746-3.366,1.888,3.283,3.366,1.746-3.283,1.888-1.746,3.366-1.888-3.283Z" transform="translate(-359.454 -155.003)"/>
    </g>
    <g id="freepik--Hourglass--inject-10" transform="translate(-7.833 42.632) rotate(-8)">
      <path id="Path_790" data-name="Path 790" class="cls-7" d="M123.048,192.279c-22.129,3.811-39.414,10.654-38.62,15.3l.376,2.149h0c.794,4.619,19.385,5.269,41.508,1.437s39.421-10.675,38.62-15.293l-.37-2.149C163.762,189.1,145.178,188.454,123.048,192.279Z" transform="translate(-0.483 -1.053)"/>
      <ellipse id="Ellipse_21" data-name="Ellipse 21" class="cls-10" cx="40.659" cy="8.492" rx="40.659" ry="8.492" transform="translate(82.871 200.304) rotate(-9.81)"/>
      <path id="Path_791" data-name="Path 791" class="cls-7" d="M126.615,202.219C106.771,205.64,91.32,211.8,92.039,215.9l.616,3.579h0c.684,4.14,17.36,4.715,37.17,1.286s35.295-9.58,34.576-13.685h0l-.616-3.572C163.066,199.372,146.425,198.791,126.615,202.219Z" transform="translate(-2.887 -4.274)"/>
      <ellipse id="Ellipse_22" data-name="Ellipse 22" class="cls-10" cx="36.403" cy="7.602" rx="36.403" ry="7.602" transform="translate(88.472 207.73) rotate(-9.81)"/>
      <path id="Path_792" data-name="Path 792" class="cls-7" d="M149.534,259.959a6.336,6.336,0,0,1-1.718-9.908c8.027-8.738,17.743-22.649,15.28-36.951-.534-3.059-15.287-3.066-32.955,0S98.576,221.12,99.1,224.179c2.47,14.281,16.293,24.121,26.789,29.656a6.336,6.336,0,0,1,1.718,9.908c-8.033,8.731-17.75,22.643-15.28,36.951.534,3.066,15.287,3.072,32.955,0s31.565-8.02,31.066-11.065C173.853,275.328,160.024,265.488,149.534,259.959Z" transform="translate(-5.12 -7.69)"/>
      <path id="Path_793" data-name="Path 793" class="cls-11" d="M149.534,259.959a6.336,6.336,0,0,1-1.718-9.908c8.027-8.738,17.743-22.649,15.28-36.951-.534-3.059-15.287-3.066-32.955,0S98.576,221.12,99.1,224.179c2.47,14.281,16.293,24.121,26.789,29.656a6.336,6.336,0,0,1,1.718,9.908c-8.033,8.731-17.75,22.643-15.28,36.951.534,3.066,15.287,3.072,32.955,0s31.565-8.02,31.066-11.065C173.853,275.328,160.024,265.488,149.534,259.959Z" transform="translate(-5.12 -7.69)"/>
      <path id="Path_794" data-name="Path 794" class="cls-12" d="M181.465,322.677c.315,3.209-56.6,14.288-60.387,9.368a4,4,0,0,1-.424-3.8,10.867,10.867,0,0,1,1.7-3.155c1.759-2.381,5.638-3.421,8.266-4.379,1.772-.65,3.558-1.245,5.344-1.861,1.916-.684,3.887-.205,5.549-1.663,1-.869,1.745-2.162,3.024-2.477.951-.233,1.971.144,2.908-.109,1.218-.328,2.087-1.642,3.346-1.663a7.908,7.908,0,0,1,1.827.445,11.292,11.292,0,0,0,3.339-.233,14.048,14.048,0,0,1,3.3.24,100.414,100.414,0,0,0,10.264,1.416c2.539.137,5.351.075,7.828.773a4.721,4.721,0,0,1,2.518,2.217h0a11.892,11.892,0,0,1,1.6,4.879Z" transform="translate(-11.835 -39.937)"/>
      <path id="Path_795" data-name="Path 795" class="cls-10" d="M182.026,317h0Z" transform="translate(-31.269 -41.219)"/>
      <path id="Path_796" data-name="Path 796" class="cls-10" d="M180.017,317.784c-1.574-1.423-4.482-1.327-5.317-1.266s-1.129-.65-1.759-.883a23.43,23.43,0,0,0-4.352.246s1.369.267,1.656.718,1.848-.068,2.053-.13c-.212.123-2.114,1.122-3.011.52s-1.266.52-1.978.807a8.871,8.871,0,0,1-3.319-.116,28.337,28.337,0,0,0-3.216,0A4.577,4.577,0,0,1,162.61,317c.6.068,3-1.2,2.511-1.109s-1.615-.568-2.491-.842a11.7,11.7,0,0,0-3.175.205,10.353,10.353,0,0,1,3.141.438,14.853,14.853,0,0,0-2.053.65,6.706,6.706,0,0,1-1.889.322,2.641,2.641,0,0,0-1.273.985,19.561,19.561,0,0,1-2.374.411,5.761,5.761,0,0,1-2.333-.274l2.162-.684-.739-.212a8.61,8.61,0,0,0-1.56-.363c-.869-.144-1.239.684-1.451.883a7.494,7.494,0,0,1-2.648-.13c-.534-.13-4.482,1.471-4.482,1.471l2.47-.424a6.042,6.042,0,0,0,2.019.472c1.649.219,1.889-.328,2.58-.281a28.17,28.17,0,0,1,2.983.684l-.89.24a8.576,8.576,0,0,1-2.368,0,4.485,4.485,0,0,0-2.518.609,21.093,21.093,0,0,1-3.209.465,3.619,3.619,0,0,0-2.258,1.109,2.812,2.812,0,0,1-2.847.684c-1.245-.322-3.346,1.2-3.346,1.2s1.1-1.458,1.676-1.56a15.67,15.67,0,0,0,2.566-1.286,4.881,4.881,0,0,0-.917.075,2.32,2.32,0,0,1-1.7-.554c-.684-.472-1.369-.1-2.374.411s-2.087,1.122-3.148.376-4.311,2.012-4.311,2.012a12.239,12.239,0,0,0,2.155-.739c.3-.246.513,0,1.471.2s1.273-.472,1.745-.725,1.889.171,1.889.171a2.128,2.128,0,0,1-1.074.2c-.52-.082-1.369,1.416-1.642,1.252a6.6,6.6,0,0,0-3.12.541c-.855.445-2.114,1.93-3.38,1.471-1.074-.39-3.5,2.9-5.625,2.942a10.866,10.866,0,0,1,1.7-3.154c1.759-2.381,5.638-3.421,8.266-4.379,1.772-.65,3.558-1.245,5.344-1.861,1.916-.684,3.887-.205,5.549-1.663,1-.869,1.745-2.162,3.025-2.477.951-.233,1.971.144,2.908-.109,1.218-.328,2.087-1.642,3.346-1.663a7.911,7.911,0,0,1,1.827.445,11.292,11.292,0,0,0,3.339-.233,14.048,14.048,0,0,1,3.3.24,100.4,100.4,0,0,0,10.264,1.416c2.539.137,5.351.075,7.828.773a4.721,4.721,0,0,1,2.546,2.162Z" transform="translate(-11.969 -39.949)"/>
      <path id="Path_797" data-name="Path 797" class="cls-7" d="M147.832,324.957c-19.844,3.421-35.295,9.58-34.583,13.685l.623,3.579h0c.684,4.106,17.353,4.715,37.17,1.286s35.295-9.58,34.576-13.685h0L185,326.25C184.283,322.076,167.642,321.495,147.832,324.957Z" transform="translate(-9.584 -43.017)"/>
      <path id="Path_798" data-name="Path 798" class="cls-7" d="M147.581,334.149c-22.123,3.825-39.414,10.675-38.614,15.3l.37,2.142h0c.8,4.626,19.385,5.269,41.515,1.444s39.414-10.675,38.613-15.3l-.369-2.142C188.3,330.967,169.711,330.324,147.581,334.149Z" transform="translate(-8.231 -45.845)"/>
      <path id="Path_799" data-name="Path 799" class="cls-10" d="M127.421,366.445l-1.6-.075Z" transform="translate(-13.56 -56.806)"/>
      <path id="Path_800" data-name="Path 800" class="cls-10" d="M181.994,360.59h0Z" transform="translate(-31.25 -54.981)"/>
      <path id="Path_801" data-name="Path 801" class="cls-10" d="M115.7,365c.219.062.452.116.684.171A4.169,4.169,0,0,0,115.7,365Z" transform="translate(-10.365 -56.374)"/>
      <path id="Path_802" data-name="Path 802" class="cls-10" d="M147.581,334.149c-22.123,3.825-39.414,10.675-38.614,15.3l.37,2.142a2.778,2.778,0,0,0,1.512,1.806,2.778,2.778,0,0,1-1.512-1.806c-.8-4.646,16.491-11.489,38.648-15.294s40.707-3.182,41.508,1.437h0l-.37-2.142C188.3,330.967,169.711,330.324,147.581,334.149Z" transform="translate(-8.231 -45.845)"/>
      <path id="Path_803" data-name="Path 803" class="cls-12" d="M151.679,274.279c-.431,3.421-1.683,8.6-2.244,12.057s1.122,8.813,1.622,10.435,3.873,1.369,3.736,2.662,5.036,1.512,5.036,1.512-24.237,9.58-26.687,8.971,4.544-5.392,5.885-5.707,2.053-1.143,2.956-3.059,1.834-1.574,2.778-3.5a43.376,43.376,0,0,0,2.272-4.441c1.074-2.669,2-10.873.876-11.564s-.1,6.288-1.074,6.521,1.266-6.9-1.683-10.5S151.679,274.279,151.679,274.279Z" transform="translate(-15.709 -27.73)"/>
      <path id="Path_804" data-name="Path 804" class="cls-10" d="M159.821,300.949s-24.23,9.58-26.687,8.971c-2.238-.554,3.483-4.653,5.474-5.549.13,1.41,3.928-.034,5.433-.869s1.622-.226,2.176-.472a32.291,32.291,0,0,0,4.318-3.25c-.438.13-3.565,2.436-4.318,1.683s-2,.684-2.929,1.122c-.807.39-1.013-.082-1.683-.684.13-.24.253-.5.383-.773.883-1.916,1.827-1.574,2.737-3.5a41.607,41.607,0,0,0,2.32-4.379c1.081-2.669,2.012-10.873.89-11.564s-.109,6.288-1.074,6.514,1.252-6.891-1.69-10.49,6.507-3.421,6.507-3.421c-.431,3.421-1.683,8.6-2.244,12.057-.37,2.265.226,5.344.821,7.657-.157.561-.376,1.074-.636,1.156-.623.185-1.061,2.313-1.875,2.374s-.13,1.56,1,.937c.746-.411,1.923-.684,2.737-1.04,1.054.937,3.421.924,3.3,2.012C154.662,300.736,159.821,300.949,159.821,300.949Z" transform="translate(-15.708 -27.733)"/>
      <path id="Path_805" data-name="Path 805" class="cls-12" d="M160.782,249.427l-.287.472a58.036,58.036,0,0,1-3.093,4.913,30.422,30.422,0,0,1-3.716,4.7c-1.314,1.266-2.655,1.861-3.421,3.373a5.281,5.281,0,0,0-.445,1.184c-.287,1.143-.376,2.518-1.369,3.161a5.164,5.164,0,0,0-.684.417c-.5.431-.472,1.184-.6,1.827s-.753,1.369-1.369,1.054-.643-1.1-1.2-1.074a2.135,2.135,0,0,0-.4.13c-.561.144-1.081-.294-1.512-.684s-1.047-.746-1.54-.445a27.473,27.473,0,0,0-4.886-3.579c-1.423-.862-2.9-1.635-4.455-2.47-3.421-1.861-7.39-3.7-9.785-5.584a6.884,6.884,0,0,1-1.909-2.121,2.737,2.737,0,0,1-.274-.883c-.4-3.38,10.066-4.386,13.685-6.9s9.272-.9,11.633-1.43,5.05.219,7.561.034,4.058-.91,5.522.157,3.086.746,3.421,1.56C161.822,247.771,161.206,248.756,160.782,249.427Z" transform="translate(-11.667 -18.52)"/>
      <path id="Path_806" data-name="Path 806" class="cls-10" d="M157.7,249.044c-2.162-.417,2.251-.5,1.916-.753a5.544,5.544,0,0,0-3.825-.992c-2.409.082-4.42-.082-4.934,0s1.676.746,1.676.746h-5.645c-1.834,0,1.252-.746,1.252-.746h-9.5c.253,0,2.087,1.081,1,1.081a11.788,11.788,0,0,0-3.75,1.163,25.529,25.529,0,0,1-3.661,1.17,46.4,46.4,0,0,1,3.647-2.915c-.226.1-3.285,1.369-4.564,1.745s-4.79,1.588-5.091,1.67a14.781,14.781,0,0,0,1.923,0,17.307,17.307,0,0,1-3.914,1.5c-1,.123-3.421.944-4.01,2.682a6.884,6.884,0,0,0,1.909,2.121c2.395,1.889,6.35,3.722,9.785,5.584,1.553.835,3.031,1.608,4.455,2.47a27.472,27.472,0,0,1,4.886,3.579c.493-.3,1.115.068,1.54.445s.951.821,1.512.684a2.137,2.137,0,0,1,.4-.13c.554,0,.684.821,1.2,1.074s1.2-.411,1.369-1.054.1-1.369.6-1.827a5.168,5.168,0,0,1,.684-.417c1-.643,1.088-2.019,1.369-3.161a5.281,5.281,0,0,1,.445-1.184c.787-1.512,2.128-2.108,3.421-3.373a30.422,30.422,0,0,0,3.716-4.7q1.668-2.378,3.093-4.913C159.853,249.283,159.887,249.461,157.7,249.044Zm-30.95,8.834c-.725-.082,1.622-.814,1.622-.814a1.758,1.758,0,0,1-1.608.814Zm.438-2.812s1.184-.937,1.683-.876a10.52,10.52,0,0,0,1.444,0s-1.861,1.252-3.113.876Zm9.436,7.315c-.855-.164.9-.684,1.327-.568s-.315.753-1.314.568Zm4.222-9.58s-3.627,1.067-2.894,1.067h1.369c-.253,0-4,.814-4.188.78a17.635,17.635,0,0,1,2.231-1.259s-.267-.335-.253-.458.848-.376.848-.376a2.692,2.692,0,0,1,2.108-.315,4.79,4.79,0,0,0,1.813.315Zm1.526,7.438c-1.013-.924,1.991,0,1.991,0s-1.293.636-1.978.014Zm1.642-9.922c1.369-.937,1.711,0,1.711,0S143.574,250.618,144.019,250.317Zm4.742,3.627-1.054-.541a3.921,3.921,0,0,1,1.437-.52,3.353,3.353,0,0,1,1.937.52c.369.226-1.957.725-2.327.527Zm2.7,4.6s-1.683-.041-1.848,0a14.376,14.376,0,0,1,1.848-.65Zm2.614-6.767s1.2-.26,1.759.363c.753.835-1.765-.363-1.765-.363Z" transform="translate(-11.792 -19.205)"/>
    </g>
    <g id="freepik--Character--inject-10">
      <path id="Path_870" data-name="Path 870" class="cls-12" d="M271.51,183.52c6.44,2.86,18.56,2.47,23.21-7.72s4.32-18.93-6.2-23.83-23.78,1.35-24.91,10.62S261.35,179,271.51,183.52Z"/>
      <path id="Path_871" data-name="Path 871" class="cls-13" d="M147.46,378.61a9.83,9.83,0,0,0,1.5-3.23h0s3.17-3.62,13.23-5.9l.89-4.53a3.82,3.82,0,0,0-1.84-4,2.16,2.16,0,0,0-.61-.24,24.777,24.777,0,0,0-3.33-.27,92.342,92.342,0,0,0-11.17.64l.05.8,7-.12c2.39,0-.29,2-2.82,2.65s-5.19,2-5,7.19C145.67,377.74,146.06,380.25,147.46,378.61Z"/>
      <path id="Path_872" data-name="Path 872" class="cls-14" d="M164.79,369.12s-12.92,3.43-15.83,6.26c0,0-1.78-4.87,4.88-8.33,8.62-4.47,6.79-6.3,6.79-6.3a21.282,21.282,0,0,1,3.69,1.43C166.58,363.52,164.79,369.12,164.79,369.12Z"/>
      <path id="Path_873" data-name="Path 873" class="cls-13" d="M348.28,409.8a9.829,9.829,0,0,0-3.52.59h0s-4.77-.56-12.35-7.58l-4.23,1.84A3.78,3.78,0,0,0,326,408.4a2,2,0,0,0,.13.64,25.324,25.324,0,0,0,1.67,2.9,92.317,92.317,0,0,0,6.84,8.85l.64-.49-4.08-5.74c-1.37-1.95,1.79-.87,3.78.83s4.55,3.17,8.75.05C348.57,411.78,350.42,410,348.28,409.8Z"/>
      <path id="Path_874" data-name="Path 874" class="cls-14" d="M330.65,400.88s10.13,8.72,14.11,9.51c0,0-3,4.22-9.62.68-8.56-4.58-9.05-2-9.05-2a21.263,21.263,0,0,1-.9-3.86C325,402.56,330.65,400.88,330.65,400.88Z"/>
      <path id="Path_875" data-name="Path 875" class="cls-12" d="M286.07,199.11c3.3,2.25,8.73,23.11,10.37,24.45s13.77-5.17,13.77-5.17l2.65,5.9s-18.32,11.21-20.84,9.1-10.76-24.68-10.76-24.68Z"/>
      <path id="Path_876" data-name="Path 876" class="cls-10" d="M286.07,199.11c3.3,2.25,8.73,23.11,10.37,24.45s13.77-5.17,13.77-5.17l2.65,5.9s-18.32,11.21-20.84,9.1-10.76-24.68-10.76-24.68Z"/>
      <path id="Path_877" data-name="Path 877" class="cls-12" d="M218.76,219.13l12.47,12.61s38.1,13,47.6-.81c0,0-4.14-20.74-14.82-24.29S218.76,219.13,218.76,219.13Z"/>
      <path id="Path_878" data-name="Path 878" class="cls-15" d="M218.76,219.13l12.47,12.61s38.1,13,47.6-.81c0,0-4.14-20.74-14.82-24.29S218.76,219.13,218.76,219.13Z"/>
      <path id="Path_879" data-name="Path 879" class="cls-14" d="M309.54,223.85l7.55-4.11,3.56-8.46a40.857,40.857,0,0,1,4.35,1.77c.5.39-1.6,7.38-2.13,7.82s-3.53.79-3.53.79l-7.19,4.55Z"/>
      <path id="Path_880" data-name="Path 880" class="cls-7" d="M243.27,188.22s24.73-.57,42.8,10.89A184.85,184.85,0,0,1,275,240.38l-36.26-6s3.88-10.33-.42-31Z"/>
      <path id="Path_881" data-name="Path 881" class="cls-16" d="M243.27,188.22s24.73-.57,42.8,10.89A184.85,184.85,0,0,1,275,240.38l-36.26-6s3.88-10.33-.42-31Z"/>
      <path id="Path_882" data-name="Path 882" class="cls-12" d="M254,187.09c5,21.24-17,40.25-33.79,40.48l-4.34-9.21,17.91-7.47,9.53-22.67Z"/>
      <path id="Path_883" data-name="Path 883" class="cls-12" d="M278.49,194.47s-3.37,29.7.34,36.46c0,0,6.33-11.59,7.76-31.33a34,34,0,0,0-8.1-5.13Z"/>
      <path id="Path_884" data-name="Path 884" class="cls-17" d="M254,187.09c5,21.24-17,40.25-33.79,40.48l-4.34-9.21,17.91-7.47,9.53-22.67Z"/>
      <path id="Path_885" data-name="Path 885" class="cls-17" d="M278.49,194.47s-3.37,29.7.34,36.46c0,0,6.33-11.59,7.76-31.33a34,34,0,0,0-8.1-5.13Z"/>
      <path id="Path_886" data-name="Path 886" class="cls-12" d="M259.5,187.38s-4.5-2.38-11.93,2.19l4.57,3.24-3.39,3.83A45.6,45.6,0,0,1,244,216.48s8.12-8.29,10.86-17.35S256.36,188,259.5,187.38Z"/>
      <path id="Path_887" data-name="Path 887" class="cls-12" d="M274.16,191.4s5.36,1.16,10,7.34l-2.86.53,2.78,4.83-7,15.6s-.74-12-.39-19.24a16.34,16.34,0,0,0-2.53-9.06Z"/>
      <path id="Path_888" data-name="Path 888" class="cls-10" d="M259.5,187.38s-4.5-2.38-11.93,2.19l4.57,3.24-3.39,3.83A45.6,45.6,0,0,1,244,216.48s8.12-8.29,10.86-17.35S256.36,188,259.5,187.38Z"/>
      <path id="Path_889" data-name="Path 889" class="cls-10" d="M274.16,191.4s5.36,1.16,10,7.34l-2.86.53,2.78,4.83-7,15.6s-.74-12-.39-19.24a16.34,16.34,0,0,0-2.53-9.06Z"/>
      <path id="Path_890" data-name="Path 890" class="cls-12" d="M274.83,289.19c-6.05,24.94-23.51,58.14-26.92,64.57-2.66,5.06-13.21,6.76-26,8.24-24.67,2.86-57.9,7.39-57.9,7.39v-7.78s67.1-15.81,68.19-19.42c1.52-5.11,3.31-29.41,4.91-49.86.19-2.28.37-4.51.54-6.66.28-3.54.54-6.83.76-9.67.52-6.51.84-10.73.84-10.73L275.05,240S282.39,258,274.83,289.19Z"/>
      <path id="Path_891" data-name="Path 891" class="cls-18" d="M274.83,289.19c-6.05,24.94-23.51,58.14-26.92,64.57-2.66,5.06-13.21,6.76-26,8.24-24.67,2.86-57.9,7.39-57.9,7.39v-7.78s67.1-15.81,68.19-19.42c1.52-5.11,3.31-29.41,4.91-49.86.19-2.28.37-4.51.54-6.66.28-3.54.54-6.83.76-9.67.52-6.51.84-10.73.84-10.73L275.05,240S282.39,258,274.83,289.19Z"/>
      <path id="Path_892" data-name="Path 892" class="cls-12" d="M292,320.05c-3.38-7.4-32.5-53.53-32.5-53.53l-28.62,4.84c9.23,27.07,42.09,54.72,47.66,61.9s46.95,71.18,46.95,71.18l5.09-3.6S299.16,335.71,292,320.05Z"/>
      <path id="Path_893" data-name="Path 893" class="cls-12" d="M238.71,234.39l37.66,2.45-.69,4.32s-4,19.37-19.89,29.64l-24.91.56s-2.91-15.79,6.9-34.09Z"/>
      <path id="Path_894" data-name="Path 894" d="M251.87,235.64l-12.42-.73-.94,2.89,13.08.98Z"/>
      <path id="Path_895" data-name="Path 895" d="M253.43,235.73l-.28,3.17,21.77,1.64.2-3.53Z"/>
      <path id="Path_896" data-name="Path 896" class="cls-9" d="M269,241.16h-.07l-4-.23a1.2,1.2,0,0,1-.81-.39,1.16,1.16,0,0,1-.29-.85L264,237a1.17,1.17,0,0,1,1.24-1.1l4,.24a1.12,1.12,0,0,1,.81.39,1.14,1.14,0,0,1,.29.85l-.15,2.65a1.2,1.2,0,0,1-1.17,1.11Zm-3.82-4.24a.17.17,0,0,0-.17.16l-.16,2.66a.2.2,0,0,0,.17.18l4,.24h0a.19.19,0,0,0,.17-.17l.15-2.65a.16.16,0,0,0,0-.13.22.22,0,0,0-.12-.06l-4-.23Z"/>
      <path id="Path_897" data-name="Path 897" class="cls-9" d="M269.64,239.19h0l-1.51-.09a.5.5,0,1,1,.06-1l1.5.09a.5.5,0,0,1,.47.53.49.49,0,0,1-.52.47Z"/>
      <path id="Path_898" data-name="Path 898" class="cls-14" d="M271,214l10.29-5.28a10.42,10.42,0,0,1,2.66-2.71c1.1-.51,10.8,1,10.8,1l-3.63,7.67s-7.18-.41-7.94-1l-9.41,5Z"/>
      <path id="Path_899" data-name="Path 899" class="cls-12" d="M243.27,188.22c-9.47,2.46,4.76,37.18,11,39.15s26.25-11.51,26.25-11.51l-3.44-5.78s-17.49,7-19.09,6.23-8.06-18.22-9.21-21.34S243.27,188.22,243.27,188.22Z"/>
      <path id="Path_900" data-name="Path 900" class="cls-10" d="M243.27,188.22c-9.47,2.46,4.76,37.18,11,39.15s26.25-11.51,26.25-11.51l-3.44-5.78s-17.49,7-19.09,6.23-8.06-18.22-9.21-21.34S243.27,188.22,243.27,188.22Z"/>
      <path id="Path_901" data-name="Path 901" class="cls-16" d="M278.75,215.86a.35.35,0,0,1-.4.27.34.34,0,0,1-.27-.4.33.33,0,0,1,.4-.27.35.35,0,0,1,.27.4Z"/>
      <path id="Path_902" data-name="Path 902" class="cls-16" d="M276.35,217.34a.34.34,0,0,1-.4.27.35.35,0,0,1-.27-.4.341.341,0,0,1,.67.13Z"/>
      <path id="Path_903" data-name="Path 903" class="cls-12" d="M328.43,197.68l-12.71,32.94a1.75,1.75,0,0,1-2,1l-23.27-5.79a1.31,1.31,0,0,1-.92-1.77l12.7-32.94a1.76,1.76,0,0,1,2-1l23.27,5.8a1.3,1.3,0,0,1,.93,1.76Z"/>
      <path id="Path_904" data-name="Path 904" class="cls-17" d="M328.43,197.68l-12.71,32.94a1.75,1.75,0,0,1-2,1l-22.21-5.53a1.29,1.29,0,0,1-.92-1.77l12.7-32.94a1.75,1.75,0,0,1,2-1l22.22,5.53a1.3,1.3,0,0,1,.92,1.77Z"/>
      <path id="Path_905" data-name="Path 905" class="cls-17" d="M310.58,208.78a2.51,2.51,0,0,0-2.87,1.49A1.86,1.86,0,0,0,309,212.8a2.5,2.5,0,0,0,2.87-1.49,1.85,1.85,0,0,1-1.29-2.53Z"/>
      <path id="Path_906" data-name="Path 906" class="cls-7" d="M252.36,195.78s1.47-6.62,4.08-8,15.07.81,19.4,4.88a17,17,0,0,1,4.8,10l-5.57-2.36-8.45,9.52L260,196.5Z"/>
      <path id="Path_907" data-name="Path 907" class="cls-19" d="M252.36,195.78s1.47-6.62,4.08-8,15.07.81,19.4,4.88a17,17,0,0,1,4.8,10l-5.57-2.36-8.45,9.52L260,196.5Z"/>
      <path id="Path_908" data-name="Path 908" class="cls-14" d="M264.88,188.05c7.19.55,10.92,5.52,10,9.59l-4.47.62-3.6,9.8-1.42-10.89-4.51-2.87S258,187.51,264.88,188.05Z"/>
      <path id="Path_909" data-name="Path 909" class="cls-14" d="M267.53,198.77c-6.86-5.41-6.06-9.65-6.06-9.65,3.37-1.86,5.61-5.88,6.42-9a18,18,0,0,0,.54-3l7.95,7a30.761,30.761,0,0,0-2.61,3.56,13.272,13.272,0,0,0-1.41,2.92c-1,3,.51,4,.51,4C272.67,198.55,267.53,198.77,267.53,198.77Z"/>
      <path id="Path_910" data-name="Path 910" class="cls-18" d="M273.61,187.19a12.892,12.892,0,0,0-1,3.08c-3.58-2.17-5.13-6.46-5.78-9.89a18.171,18.171,0,0,0,.16-3l8.77,6A30.449,30.449,0,0,0,273.61,187.19Z"/>
      <path id="Path_911" data-name="Path 911" class="cls-14" d="M286.35,160.5c8.18,3.95,8.7,9.6,5.23,18.31-4.34,10.9-10.29,17.25-19.43,10.06C259.74,179.11,272.77,153.94,286.35,160.5Z"/>
      <path id="Path_912" data-name="Path 912" class="cls-20" d="M286.51,175.8a19.1,19.1,0,0,0,.74,4.54,2.49,2.49,0,0,1-2.6-.11Z"/>
      <path id="Path_913" data-name="Path 913" class="cls-12" d="M281.83,172.72c-.31.68-.93,1.06-1.38.85s-.57-.92-.26-1.6.92-1.06,1.38-.86S282.14,172,281.83,172.72Z"/>
      <path id="Path_914" data-name="Path 914" class="cls-12" d="M281.36,171.06l1.74.09S281.8,172.06,281.36,171.06Z"/>
      <path id="Path_915" data-name="Path 915" class="cls-12" d="M290.34,176.41c-.31.68-.93,1.07-1.38.86s-.57-.92-.26-1.6.92-1.07,1.38-.86S290.65,175.73,290.34,176.41Z"/>
      <path id="Path_916" data-name="Path 916" class="cls-12" d="M289.87,174.76l1.74.09S290.31,175.76,289.87,174.76Z"/>
      <path id="Path_917" data-name="Path 917" class="cls-12" d="M284.15,168.28a.35.35,0,0,1-.3-.18,4.4,4.4,0,0,0-3.21-2.09.34.34,0,0,1-.34-.36.35.35,0,0,1,.36-.35c2.36.06,3.74,2.35,3.8,2.44a.36.36,0,0,1-.13.49.37.37,0,0,1-.18.05Z"/>
      <path id="Path_918" data-name="Path 918" class="cls-12" d="M294,171.15h-.15a3.92,3.92,0,0,0-3.37-.21.35.35,0,0,1-.48-.14.34.34,0,0,1,.14-.48,4.59,4.59,0,0,1,4,.19.36.36,0,0,1,.17.47.35.35,0,0,1-.31.17Z"/>
      <path id="Path_919" data-name="Path 919" class="cls-12" d="M270.76,170s7.07-4.87,9-10.34c0,0,19.41,1.21,12.26,18,0,0,8.64-13.84-5.26-21S263,170.19,267.27,179.82C267.27,179.82,266.36,173,270.76,170Z"/>
      <path id="Path_920" data-name="Path 920" class="cls-14" d="M271.26,172.33a4,4,0,0,0-2.28-5.14c-2.67-.95-6.39,3.67-.69,8C269.11,175.77,270.05,175.14,271.26,172.33Z"/>
      <path id="Path_921" data-name="Path 921" class="cls-12" d="M279.39,152.44s6.17-1.38,10.12.58,4.22,4.9,4.22,4.9a5.8,5.8,0,0,1,5.1,1.57c2.46,2.27,3.91,8.8,1.3,15.79s-8.7,6-8.7,6,7.94-10.37-.52-17.11c0,0-2.77-3.32-6-1.31s-5.53,10.4-12.64,4.94S273.26,154.05,279.39,152.44Z"/>
      <path id="Path_922" data-name="Path 922" class="cls-12" d="M282.74,183.87a.36.36,0,0,1-.35-.31c-.16-1.27-2.29-2.71-3.1-3.15a.37.37,0,0,1-.14-.49.35.35,0,0,1,.48-.13c.13.07,3.22,1.8,3.46,3.68a.36.36,0,0,1-.3.4Z" transform="translate(612.246 233.561) rotate(156)"/>
      <path id="Path_923" data-name="Path 923" class="cls-12" d="M280,153.75s-4.29-14.24-13.61-10.14S252.54,158,245,152s-11,1.78-14.66,4.15-10.14-1.19-8.41-4.15c0,0-4.75,3.63,3.67,7.45s12.55-4.16,15.23-1.14S253,167.34,258,163a10.36,10.36,0,0,1,10.46-1.94Z"/>
      <path id="Path_924" data-name="Path 924" class="cls-12" d="M254.81,167a5.34,5.34,0,0,1-1.89-.35,53.077,53.077,0,0,1-5.27-2.43c-3.72-1.88-7.24-3.66-9.2-2.11a.25.25,0,0,1-.35,0,.24.24,0,0,1,0-.35c2.21-1.74,5.87.11,9.73,2.06a53.417,53.417,0,0,0,5.23,2.42c3.26,1.21,6.36-1.4,9.1-3.71,2-1.66,3.82-3.22,5.56-3.27a.25.25,0,0,1,.26.24.26.26,0,0,1-.25.26c-1.56.05-3.35,1.55-5.24,3.15C260.2,164.78,257.61,167,254.81,167Z"/>
      <path id="Path_925" data-name="Path 925" class="cls-12" d="M228.5,154.49a2.9,2.9,0,0,1-1.75-.59.24.24,0,0,1-.06-.35.25.25,0,0,1,.34-.06c2.16,1.53,4.46-.77,6.7-3,1.58-1.58,3.07-3.07,4.53-3.25s3.28.78,5.44,2a27.28,27.28,0,0,0,11,4.16.251.251,0,0,1-.05.5,27.91,27.91,0,0,1-11.23-4.23c-2.07-1.21-3.71-2.16-5.12-2s-2.72,1.59-4.24,3.11C232.34,152.58,230.42,154.49,228.5,154.49Z"/>
      <path id="Path_926" data-name="Path 926" class="cls-12" d="M277.08,172.16a6.6,6.6,0,0,1-3.05-.89.25.25,0,0,1-.08-.35.24.24,0,0,1,.34-.07c.15.09,3.6,2.2,5.52-.7,4.94-7.51,6.71-9.35,9.72-8.05a.24.24,0,0,1,.13.33.26.26,0,0,1-.33.13c-2.54-1.1-4.07.22-9.11,7.87a3.59,3.59,0,0,1-3.14,1.73Z"/>
      <path id="Path_942" data-name="Path 942" class="cls-12" d="M2,0C3.1,0,4.12-.1,4.12.523A2.31,2.31,0,0,1,2,2.256C.9,2.256.05.686.05.063S.9,0,2,0Z" transform="translate(279.286 181.537) rotate(16)"/>
    </g>
    <g id="Group_161" data-name="Group 161" transform="translate(-2407 -407)">
      <path id="Path_927" data-name="Path 927" class="cls-21" d="M573.771,118.66l.746,2.634-2.373,16.775-4.425,1.231,2.343-16.029-5.851,1.612.8,2.866-3.6,1.015-1.724-6.186Z" transform="translate(2259.151 414.989)"/>
      <path id="Path_928" data-name="Path 928" class="cls-21" d="M597.571,125.356c.866,3.119-.664,6.47-5.686,7.865a12.619,12.619,0,0,1-7.238,0l.746-3.567a8.828,8.828,0,0,0,5.448.194c2.03-.567,3.052-1.769,2.657-3.2s-1.545-2.037-4.739-1.149l-4.477,1.254-1.851-10.156,10.731-2.985.888,3.276-7.343,2.037.657,3.425,1.433-.4C594,120.475,596.706,122.244,597.571,125.356Z" transform="translate(2253.38 416.27)"/>
      <path id="Path_929" data-name="Path 929" class="cls-21" d="M602.192,115.666c-.791-2.866.284-5.224,2.649-5.88s4.477.746,5.3,3.671-.306,5.224-2.649,5.88S602.991,118.532,602.192,115.666Zm6.716-1.858c-.634-2.283-2.09-3.343-3.731-2.888s-2.336,2.134-1.7,4.4,2.067,3.351,3.731,2.888,2.306-2.112,1.672-4.4Zm6.649-6.858,1.492-.41-7.119,20.932-1.492.41Zm-.246,14.014c-.791-2.866.306-5.224,2.642-5.88s4.477.806,5.306,3.671-.284,5.224-2.649,5.88-4.53-.806-5.328-3.671Zm6.716-1.858c-.627-2.239-2.067-3.351-3.731-2.888s-2.343,2.112-1.7,4.4,2.089,3.343,3.731,2.888,2.269-2.134,1.642-4.4Z" transform="translate(2248.43 418.064)"/>
      <path id="Path_930" data-name="Path 930" class="cls-22" d="M132.849,72.88l.746,2.843-11.38,2.925-.582-2.239,4.4-6.977c1.007-1.612,1.045-2.448.858-3.179-.306-1.187-1.3-1.664-2.888-1.254a3.783,3.783,0,0,0-2.731,2.306l-2.985-.985a7.279,7.279,0,0,1,5.224-4.336c3.358-.858,6.037.291,6.716,2.985.381,1.492.313,2.9-1.3,5.4l-2.619,4.157Z" transform="translate(2485.903 444.372)"/>
      <path id="Path_931" data-name="Path 931" class="cls-22" d="M137.93,66.632c-1.276-4.977.746-8.5,4.477-9.447s7.179,1.157,8.455,6.127-.746,8.492-4.477,9.447S139.206,71.6,137.93,66.632Zm9.4-2.418c-.881-3.425-2.448-4.53-4.194-4.082s-2.56,2.172-1.679,5.589,2.448,4.53,4.171,4.089S148.213,67.632,147.332,64.214Z" transform="translate(2481.016 445.576)"/>
      <path id="Path_932" data-name="Path 932" class="cls-22" d="M156.444,57.544c-.634-2.455.328-4.477,2.351-4.962s3.813.746,4.477,3.216-.351,4.477-2.351,4.962S157.071,59.992,156.444,57.544Zm5.724-1.492c-.507-1.963-1.731-2.888-3.127-2.522s-2.022,1.776-1.492,3.731,1.7,2.888,3.127,2.522,1.992-1.754,1.492-3.709Zm5.776-5.731L169.212,50,162.78,67.723l-1.269.328Zm-.448,11.94c-.627-2.455.351-4.477,2.351-4.962s3.821.746,4.477,3.216-.328,4.477-2.351,4.955-3.843-.746-4.477-3.194Zm5.724-1.492c-.5-1.94-1.7-2.888-3.127-2.522S168.071,60,168.6,61.977s1.731,2.88,3.127,2.522,1.992-1.761,1.5-3.694Z" transform="translate(2476.27 447.343)"/>
      <path id="Path_933" data-name="Path 933" class="cls-23" d="M322.315,135.6c.06,3.082-2.239,5.97-7.462,6.03a12.507,12.507,0,0,1-6.992-1.836l1.582-3.261a8.955,8.955,0,0,0,5.224,1.552c2.112-.037,3.4-.918,3.38-2.41,0-1.381-1.06-2.239-3.455-2.179h-1.933l-.045-2.791,3.679-4.313-7.776.134-.052-3.4,12.776-.216.052,2.739-4.022,4.791C320.568,130.91,322.27,132.91,322.315,135.6Z" transform="translate(2540.555 485.453)"/>
      <path id="Path_934" data-name="Path 934" class="cls-23" d="M329.769,131.861c-.1-6.059,3.157-9.5,7.634-9.582s7.88,3.283,7.985,9.306-3.149,9.507-7.656,9.582S329.874,137.883,329.769,131.861Zm11.4-.2c-.075-4.142-1.567-5.843-3.679-5.806s-3.515,1.784-3.44,5.97,1.56,5.843,3.642,5.806S341.239,135.809,341.172,131.66Z" transform="translate(2534.996 485.614)"/>
      <path id="Path_935" data-name="Path 935" class="cls-23" d="M353.51,127.209c-.052-2.985,1.582-4.985,4.037-5.03s4.157,1.888,4.209,4.888-1.612,4.985-4.037,5.022S353.562,130.179,353.51,127.209Zm6.94-.119c-.045-2.373-1.187-3.731-2.88-3.731s-2.8,1.492-2.754,3.836,1.157,3.731,2.88,3.731S360.487,129.493,360.45,127.09Zm8.156-4.97h1.537l-12.149,18.469h-1.537Zm-3.731,13.5c-.045-2.985,1.612-4.985,4.037-5.022s4.157,1.91,4.209,4.88-1.582,4.985-4.037,5.03-4.186-1.91-4.239-4.888Zm6.94-.119c-.037-2.343-1.157-3.731-2.88-3.731s-2.791,1.455-2.754,3.828,1.186,3.731,2.88,3.731,2.769-1.478,2.724-3.828Z" transform="translate(2528.972 485.654)"/>
      <path id="Path_936" data-name="Path 936" class="cls-24" d="M441.857,60.8c-.358,2.328-2.38,4.1-6.142,3.522a9.2,9.2,0,0,1-4.806-2.172L432.47,60a6.4,6.4,0,0,0,3.56,1.754c1.53.231,2.567-.261,2.731-1.336s-.418-1.813-2.806-2.179l-3.366-.515,1.806-7.306,8.029,1.224-.373,2.448-5.492-.836-.589,2.463,1.075.164C440.939,56.479,442.215,58.464,441.857,60.8Z" transform="translate(2303.362 441.645)"/>
      <path id="Path_937" data-name="Path 937" class="cls-24" d="M447.7,59.257c.664-4.351,3.448-6.447,6.716-5.97s5.268,3.321,4.6,7.671-3.433,6.44-6.716,5.97S447.041,63.6,447.7,59.257Zm8.209,1.254c.455-2.985-.41-4.4-1.933-4.627s-2.746.851-3.2,3.843.4,4.388,1.91,4.619,2.784-.843,3.239-3.828Z" transform="translate(2299.134 440.935)"/>
      <path id="Path_938" data-name="Path 938" class="cls-24" d="M465.549,58.7c.328-2.142,1.754-3.388,3.522-3.119s2.754,1.866,2.425,4.03-1.769,3.388-3.522,3.119S465.221,60.846,465.549,58.7Zm11.514-1.806,1.112.172L467.138,68.853l-1.112-.172Zm-6.47,2.575c.261-1.716-.4-2.851-1.619-3.037s-2.186.746-2.448,2.418.373,2.843,1.619,3.037,2.149-.709,2.41-2.418Zm2.112,6.671c.328-2.142,1.769-3.388,3.522-3.119s2.754,1.888,2.425,4.03-1.754,3.388-3.522,3.119-2.791-1.881-2.463-4.03Zm5.007.746c.254-1.694-.373-2.851-1.619-3.037s-2.186.7-2.448,2.41.4,2.858,1.619,3.045,2.149-.731,2.41-2.4Z" transform="translate(2294.587 440.346)"/>
      <path id="Path_939" data-name="Path 939" class="cls-25" d="M42.37,148.794l-2.731,11.664-2.672-.612,2.239-9.5L36.87,149.8l.507-2.172Z" transform="translate(2456.742 417.457)"/>
      <path id="Path_940" data-name="Path 940" class="cls-25" d="M45.054,155.946c.9-3.851,3.545-5.537,6.41-4.865s4.477,3.358,3.582,7.2-3.522,5.537-6.41,4.865S44.151,159.8,45.054,155.946Zm7.283,1.7c.619-2.649-.06-3.97-1.41-4.283s-2.522.567-3.142,3.216.052,3.97,1.388,4.283S51.711,160.3,52.337,157.648Z" transform="translate(2454.729 416.618)"/>
      <path id="Path_941" data-name="Path 941" class="cls-25" d="M71.554,155.824l.985.231-10.7,9.8-.978-.231Zm-10.447.813c.448-1.9,1.813-2.918,3.38-2.552s2.336,1.866,1.888,3.783-1.821,2.91-3.373,2.552-2.313-1.888-1.873-3.783Zm4.433,1.037c.358-1.492-.149-2.582-1.231-2.836s-2.015.492-2.366,1.992.134,2.582,1.239,2.836,2.03-.44,2.38-1.992Zm1.433,6.134c.44-1.9,1.821-2.91,3.373-2.552s2.336,1.888,1.9,3.783-1.813,2.918-3.38,2.552-2.313-1.888-1.866-3.783Zm4.44,1.037c.351-1.492-.134-2.582-1.231-2.836s-2.015.478-2.366,1.992.149,2.582,1.231,2.836S71.076,166.346,71.412,164.846Z" transform="translate(2450.655 415.838)"/>
    </g>
  </g>
</svg>
